<?xml version="1.0" standalone="no"?><svg xmlns="http://www.w3.org/2000/svg" viewBox="0 0 1440 320"><path fill="#0CCE6B" fill-opacity="1" d="M0,224L40,192C80,160,160,96,240,106.7C320,117,400,203,480,234.7C560,267,640,245,720,234.7C800,224,880,224,960,224C1040,224,1120,224,1200,234.7C1280,245,1360,267,1400,277.3L1440,288L1440,320L1400,320C1360,320,1280,320,1200,320C1120,320,1040,320,960,320C880,320,800,320,720,320C640,320,560,320,480,320C400,320,320,320,240,320C160,320,80,320,40,320L0,320Z"></path></svg>